<svg width="34" height="34" viewBox="0 0 34 34" fill="none" xmlns="http://www.w3.org/2000/svg">
<path d="M28.4438 8.98312L27.7022 6.76077C27.553 6.31346 27.1343 6.01184 26.6628 6.01184H7.33697C6.86542 6.01184 6.44679 6.31352 6.29751 6.76077L5.55595 8.98312C5.38795 9.48662 5.76268 10.0067 6.29346 10.0067H27.7062C28.2371 10.0067 28.6118 9.48662 28.4438 8.98312Z" fill="black"/>
<path d="M9.00554 32.6564C9.09054 33.4214 9.73707 34 10.5067 34H23.3708C24.1405 34 24.787 33.4213 24.872 32.6564L27.1673 11.999H6.71021L9.00554 32.6564Z" fill="black"/>
<path d="M15.0004 2.85534C15.0004 2.3794 15.3876 1.99219 15.8635 1.99219H18.7979C19.2739 1.99219 19.6611 2.3794 19.6611 2.85534V4.01964H21.6533V2.85534C21.6533 1.28091 20.3724 0 18.7979 0H15.8635C14.2891 0 13.0082 1.28091 13.0082 2.85534V4.01964H15.0004V2.85534Z" fill="black"/>
</svg>
