<svg width="28" height="29" viewBox="0 0 28 29" fill="none" xmlns="http://www.w3.org/2000/svg">
<path d="M25.6667 12.5342H16.3335V3.20103C16.3335 1.91304 15.2905 0.867676 14.0002 0.867676C12.7098 0.867676 11.6668 1.91304 11.6668 3.20103V12.5342H2.3336C1.04326 12.5342 0.000244141 13.5796 0.000244141 14.8676C0.000244141 16.1556 1.04326 17.201 2.3336 17.201H11.6668V26.5342C11.6668 27.8222 12.7098 28.8675 14.0002 28.8675C15.2905 28.8675 16.3335 27.8222 16.3335 26.5342V17.201H25.6667C26.9571 17.201 28.0001 16.1556 28.0001 14.8676C28.0001 13.5796 26.9571 12.5342 25.6667 12.5342Z" fill="#333333"/>
</svg>
